<?xml version="1.0" encoding="iso-8859-1"?>
<!-- Generator: Adobe Illustrator 19.0.0, SVG Export Plug-In . SVG Version: 6.00 Build 0)  -->
<svg version="1.1" id="Capa_1" xmlns="http://www.w3.org/2000/svg" xmlns:xlink="http://www.w3.org/1999/xlink" x="0px" y="0px"
	 viewBox="0 0 512 512" style="enable-background:new 0 0 512 512;" xml:space="preserve">
<g>
	<g>
		<path d="M321.871,0v39.922H443.35L274.584,208.688c-28.812-22.56-65.07-36.026-104.416-36.026
			c-93.555,0-169.669,76.113-169.669,169.669S76.612,512,170.168,512s169.669-76.113,169.669-169.669
			c0-39.855-13.82-76.538-36.911-105.527L471.579,68.151V189.63h39.922V0H321.871z M170.168,472.078
			c-71.542,0-129.747-58.204-129.747-129.747s58.204-129.747,129.747-129.747c30.813,0,59.145,10.804,81.426,28.813l19.508,19.508
			c18.009,22.28,28.813,50.613,28.813,81.426C299.914,413.874,241.71,472.078,170.168,472.078z"/>
	</g>
</g>
<g>
</g>
<g>
</g>
<g>
</g>
<g>
</g>
<g>
</g>
<g>
</g>
<g>
</g>
<g>
</g>
<g>
</g>
<g>
</g>
<g>
</g>
<g>
</g>
<g>
</g>
<g>
</g>
<g>
</g>
</svg>
