<?xml version="1.0" encoding="UTF-8"?>
<svg xmlns="http://www.w3.org/2000/svg" xmlns:xlink="http://www.w3.org/1999/xlink" width="512" height="512" viewBox="0 0 58 58" version="1.1"><!-- Generator: Sketch 50.2 (55047) - http://www.bohemiancoding.com/sketch --><title>065 - Digital Measure </title><desc>Created with Sketch.</desc><defs/><g id="Page-1" stroke="none" stroke-width="1" fill="none" fill-rule="evenodd"><g id="065---Digital-Measure-" fill-rule="nonzero"><circle id="Oval" fill="#D1D4D1" cx="23" cy="31" r="3"/><path d="M46,21.171 L34.258,5.946 L32.591,9.446 C32.2006083,10.2649653 32.3030131,11.2337537 32.856,11.953 L42,23.805 L46,21.171 Z" id="Shape" fill="#E57E25"/><path d="M57.54,16.6 L48.13,23.94 L30.25,37.91 L4.84,57.75 C4.32056397,58.1521146 3.57370804,58.0581985 3.17,57.54 L0.25,53.75 C-0.15200497,53.2235032 -0.0586350695,52.4720978 0.46,52.06 L2.49,50.47 L4.07,49.24 L6.26,47.53 L7.83,46.3 L10.02,44.59 L11.6,43.37 L11.6,43.36 L13.78,41.66 L13.79,41.66 L15.36,40.43 L15.36,40.42 L17.55,38.71 L19.13,37.49 L21.32,35.78 L22.89,34.55 L22.89,34.54 L25.87,32.22 L43.75,18.26 L46.1,16.42 L47.63,15.23 L49.39,13.85 C49.9111216,13.4447932 50.0092136,12.6957269 49.61,12.17 L40.85,0.8 L44.63,0.05 C45.5142068,-0.129562216 46.4232282,0.212292004 46.97,0.93 L57.75,14.91 C58.152005,15.4364968 58.0586351,16.1879022 57.54,16.6 Z" id="Shape" fill="#F29C1F"/><path d="M43.748,18.261 L25.869,32.223 L33.969,42.736 C34.1425354,42.9624939 34.3994163,43.110213 34.6824597,43.1462743 C34.9655032,43.1823356 35.2512171,43.103746 35.476,42.928 L51.66,30.291 C52.128952,29.9227517 52.2137238,29.2454699 51.85,28.773 L43.748,18.261 Z" id="Shape" fill="#35495E"/><path d="M39.984,21.2 L45.166,27.924 C45.529497,28.3967305 45.4442742,29.0740516 44.975,29.442 L36.322,36.2 C36.0973416,36.3758548 35.8117092,36.4546098 35.528673,36.4187372 C35.2456368,36.3828647 34.9886833,36.2353414 34.815,36.009 L29.633,29.285 L39.984,21.2 Z" id="Shape" fill="#46B29D"/><path d="M24.18,37.85 C23.9691639,38.0131372 23.7021502,38.0858243 23.4377149,38.0520666 C23.1732796,38.0183089 22.9330902,37.8808725 22.77,37.67 L21.32,35.78 L22.89,34.55 L22.9,34.55 L24.36,36.45 C24.6896134,36.8882546 24.6097547,37.5093784 24.18,37.85 Z" id="Shape" fill="#D25627"/><path d="M49.07,18.69 C48.6294541,19.0184646 48.0070689,18.933998 47.67,18.5 L46.21,16.61 C46.1623577,16.5536899 46.1251109,16.4893546 46.1,16.42 L47.63,15.23 C47.6882179,15.2782142 47.7417858,15.3317821 47.79,15.39 L49.25,17.28 C49.4144457,17.4903398 49.4879492,17.7577062 49.4541394,18.0225497 C49.4203296,18.2873933 49.2820143,18.5277189 49.07,18.69 Z" id="Shape" fill="#D25627"/><path d="M20.41,40.79 C20.2354502,40.9254677 20.0209494,40.9993122 19.8,41 C19.4909972,40.9971672 19.2001505,40.8535847 19.01,40.61 L17.55,38.71 L19.13,37.49 L20.59,39.39 C20.7531165,39.5990162 20.8258725,39.8645838 20.7920624,40.1275509 C20.7582524,40.3905179 20.6206844,40.6290439 20.41,40.79 Z" id="Shape" fill="#D25627"/><path d="M16.65,43.73 C16.4754502,43.8654677 16.2609494,43.9393122 16.04,43.94 C15.7281329,43.9374313 15.4341205,43.7941003 15.24,43.55 L13.79,41.66 L15.36,40.43 L15.37,40.43 L16.83,42.33 C17.1658001,42.766601 17.0853218,43.3925433 16.65,43.73 Z" id="Shape" fill="#D25627"/><path d="M12.88,46.67 C12.7061569,46.8067693 12.4911937,46.880773 12.27,46.88 C11.9609972,46.8771672 11.6701505,46.7335847 11.48,46.49 L10.02,44.59 L11.6,43.37 L13.06,45.27 C13.2231165,45.4790162 13.2958725,45.7445838 13.2620624,46.0075509 C13.2282524,46.2705179 13.0906844,46.5090439 12.88,46.67 Z" id="Shape" fill="#D25627"/><path d="M9.12,49.61 C8.91098376,49.7731165 8.64541615,49.8458725 8.38244911,49.8120624 C8.11948208,49.7782524 7.88095612,49.6406844 7.72,49.43 L6.26,47.53 L7.83,46.3 L7.84,46.31 L9.3,48.21 C9.46311651,48.4190162 9.53587249,48.6845838 9.50206245,48.9475509 C9.4682524,49.2105179 9.33068438,49.4490439 9.12,49.61 Z" id="Shape" fill="#D25627"/><path d="M5.35,52.55 C5.17522196,52.6838966 4.96012756,52.7544194 4.74,52.75 C4.43282155,52.7490115 4.142514,52.6093699 3.95,52.37 L2.49,50.47 L4.07,49.24 L4.08,49.25 L5.54,51.14 C5.87179025,51.5831666 5.78726077,52.2104644 5.35,52.55 Z" id="Shape" fill="#D25627"/><path d="M36.318,31.134 C35.8911402,31.1341387 35.5112533,30.8633101 35.3722123,30.45973 C35.2331713,30.0561498 35.3656344,29.608807 35.702,29.346 L38.524,27.141 C38.9592004,26.8007926 39.5877926,26.8777996 39.928,27.313 C40.2682074,27.7482004 40.1912004,28.3767926 39.756,28.717 L36.933,30.922 C36.7573563,31.0592329 36.5408981,31.1338494 36.318,31.134 Z" id="Shape" fill="#65DDB9"/></g></g></svg>
