<?xml version="1.0" encoding="iso-8859-1"?>
<!-- Generator: Adobe Illustrator 19.0.0, SVG Export Plug-In . SVG Version: 6.00 Build 0)  -->
<svg xmlns="http://www.w3.org/2000/svg" xmlns:xlink="http://www.w3.org/1999/xlink" version="1.1" id="Capa_1" x="0px" y="0px" viewBox="0 0 460 460" style="enable-background:new 0 0 460 460;" xml:space="preserve" width="512" height="512">
<g id="XMLID_1187_">
	<path id="XMLID_224_" style="fill:#E7CC89;" d="M440,170H20c-11.046,0-20,8.954-20,20v80c0,11.046,8.954,20,20,20h420   c11.046,0,20-8.954,20-20v-80C460,178.954,451.046,170,440,170z M430,210c-5.523,0-10-4.477-10-10c0-5.523,4.477-10,10-10   s10,4.477,10,10C440,205.523,435.523,210,430,210z"/>
	<path id="XMLID_311_" style="fill:#CBB57A;" d="M460,230v40c0,11.046-8.954,20-20,20H20c-11.046,0-20-8.954-20-20v-40H460z"/>
	<path id="XMLID_91_" style="fill:#54463E;" d="M55,252v38H45v-38c0-1.105,0.895-2,2-2h6C54.105,250,55,250.895,55,252z M143,250h-6   c-1.105,0-2,0.895-2,2v38h10v-38C145,250.895,144.105,250,143,250z M233,250h-6c-1.105,0-2,0.895-2,2v38h10v-38   C235,250.895,234.105,250,233,250z M323,250h-6c-1.105,0-2,0.895-2,2v38h10v-38C325,250.895,324.105,250,323,250z M83,270h-6   c-1.105,0-2,0.895-2,2v18h10v-18C85,270.895,84.105,270,83,270z M113,270h-6c-1.105,0-2,0.895-2,2v18h10v-18   C115,270.895,114.105,270,113,270z M173,270h-6c-1.105,0-2,0.895-2,2v18h10v-18C175,270.895,174.105,270,173,270z M203,270h-6   c-1.105,0-2,0.895-2,2v18h10v-18C205,270.895,204.105,270,203,270z M263,270h-6c-1.105,0-2,0.895-2,2v18h10v-18   C265,270.895,264.105,270,263,270z M293,270h-6c-1.105,0-2,0.895-2,2v18h10v-18C295,270.895,294.105,270,293,270z M413,250h-6   c-1.105,0-2,0.895-2,2v38h10v-38C415,250.895,414.105,250,413,250z M353,270h-6c-1.105,0-2,0.895-2,2v18h10v-18   C355,270.895,354.105,270,353,270z M383,270h-6c-1.105,0-2,0.895-2,2v18h10v-18C385,270.895,384.105,270,383,270z"/>
</g>















</svg>
